# xmcd
#
# Track frame offsets: 
#        150
#        21375
#        33738
#        51726
#        67967
#        78395
#        90621
#        102859
#        114184
#        130095
#        142325
#        156022
#        170047
#        182341
#        195880
#        211421
#        225809
#        241393
#        264474
#        280061
#        300325
#
# Disc length: 4227 seconds
#
# Revision: 0
# Processed by: cddbd v1.4PL0 Copyright (c) Steve Scherf et al.
# Submitted via: ExactAudioCopy v0.90a11
#
DISCID=19108115
DTITLE=Bailão dos Cafagestes - Vol. 7 - Bailão dos Cafagestes - Vol. 7
DYEAR=1900
DGENRE=
TTITLE0=Vai Sobrar Mulher
TTITLE1=Vontade de Me Ter
TTITLE2=Lorota
TTITLE3=Forró do Limpa Banco
TTITLE4=Coração Virou Peão
TTITLE5=Ela diz que tá que tá
TTITLE6=Arroxando o nó
TTITLE7=A trepadeira da vizinha
TTITLE8=A coisa
TTITLE9=O Tá no pé, tá na bota
TTITLE10=Prá lá do meio
TTITLE11=Mulher Arueira
TTITLE12=A gata da BMW
TTITLE13=Sete Dias
TTITLE14=Rindo á toa
TTITLE15=Esperando na Janela
TTITLE16=Xote dos Milagres
TTITLE17=Bomba
TTITLE18=Dominado
TTITLE19=Bonde do Tigrão
TTITLE20=Kosheen
EXTD=
EXTT0=
EXTT1=
EXTT2=
EXTT3=
EXTT4=
EXTT5=
EXTT6=
EXTT7=
EXTT8=
EXTT9=
EXTT10=
EXTT11=
EXTT12=
EXTT13=
EXTT14=
EXTT15=
EXTT16=
EXTT17=
EXTT18=
EXTT19=
EXTT20=
PLAYORDER=
